<?xml version="1.0" encoding="utf-8"?>
<!-- Generator: Adobe Illustrator 27.5.0, SVG Export Plug-In . SVG Version: 6.00 Build 0)  -->
<svg version="1.1" xmlns="http://www.w3.org/2000/svg" xmlns:xlink="http://www.w3.org/1999/xlink" x="0px" y="0px"
	 viewBox="0 0 500 500" style="enable-background:new 0 0 500 500;" xml:space="preserve">
<g id="BACKGROUND">
	<rect style="fill:#2E494A;" width="500" height="500"/>
</g>
<g id="OBJECTS">
	<path style="opacity:0.2;fill:#121C1C;" d="M479,422.14c0-5.039-140.452-12.437-261.126-12.437S42,417.102,42,422.14
		c0,5.039,149.596,18.862,270.27,18.862C432.944,441.002,479,427.179,479,422.14z"/>
	<g>
		<g>
			<g>
				<path style="fill:#2C1817;" d="M127.825,72.28c0,0,8.962,9.919,8.269,23.358c-0.521,10.11-12.056,20.048-16.574,20.019
					c-4.517-0.03-5.067-19.456-5.067-19.456S111.346,71.557,127.825,72.28z"/>
				<path style="fill:#2C1817;" d="M92.474,73.392c-7.258,8.391-7.558,20.912-4.618,31.609c2.94,10.698,8.622,20.433,12.276,30.908
					c4.8,13.76,6,28.759,3.448,43.107c7.264-1.187,11.929-8.479,14.784-15.263c6.12-14.542,5.937-30.878,5.115-46.634
					c-0.452-8.672-1.067-17.335-1.845-25.984c-0.508-5.646-1.31-11.777-5.35-15.754C110.546,69.732,100.358,71.76,92.474,73.392z"/>
				<path style="fill:#F68A5D;" d="M111.513,112.718l-15.463-2.214c0,0,1.754-12.245,2.674-30.523l10.603,13.118
					c0,0-0.507,2.928-0.347,7.141c0.047,1.211,0.141,2.533,0.319,3.922C109.655,106.864,110.321,109.81,111.513,112.718z"/>
				<path style="fill:#F69872;" d="M126.495,82.315c0.806,18.566-4.964,27.191-19.013,17.151
					c-6.452-4.611-10.318-10.159-9.301-18.024c1.017-7.865,8.217-13.417,16.082-12.4C122.128,70.059,126.151,74.392,126.495,82.315z
					"/>
				<path style="fill:#2C1817;" d="M109.023,85.502c0.401,2.318,0.509,4.856-0.199,7.191c-0.486,1.602-1.327,3.009-2.216,4.312
					c-3.676,5.383-7.584,11.479-12.722,10.491c-6.765-1.3-6.075-29.073,0.341-37.069C100.727,62.326,107.774,78.286,109.023,85.502z
					"/>
				<path style="fill:#2C1817;" d="M122.106,81.759c0.102,0.402-2.057,1.295-3.385,1.63c-1.327,0.335-1.867,0.125-1.968-0.277
					c-0.102-0.402,1.438-1.138,2.766-1.474C120.846,81.302,122.004,81.357,122.106,81.759z"/>
				<path style="fill:#2C1817;" d="M123.046,86.705c0.192,0.76,0.054,1.451-0.308,1.543s-0.811-0.451-1.003-1.211
					c-0.192-0.76-0.054-1.451,0.308-1.543S122.854,85.945,123.046,86.705z"/>
				<path style="fill:#F69872;" d="M126.158,82.487c0,0,2.394,9.682,2.287,11.168c-0.107,1.486-3.555,1.114-3.555,1.114
					L126.158,82.487z"/>
				<path style="fill:none;stroke:#2C1817;stroke-width:0.25;stroke-miterlimit:10;" d="M120.142,97.244
					c0.99,0.915,2.4,1.356,3.736,1.169"/>
				<path style="fill:#F68A5D;" d="M118.388,93.661c0,1.979-1.866,3.584-4.168,3.584c-2.302,0-4.168-1.604-4.168-3.584
					c0-1.979,1.866-3.584,4.168-3.584C116.522,90.077,118.388,91.682,118.388,93.661z"/>
			</g>
			<path style="fill:#F68A5D;" d="M86.556,374.959l-2.898,36.34c0,0,4.595,0.9,7.097-0.038l8.132-31.277L86.556,374.959z"/>
			<path style="fill:#DEDEDE;" d="M82.679,408.567c0.746-0.107,1.495,0.275,2.015,0.82c0.52,0.545,0.854,1.237,1.178,1.917
				c1.021-0.704,2.162-1.403,3.183-2.107c0.571-0.393,1.226-0.806,1.907-0.673c0.506,0.099,0.9,0.481,1.289,0.819
				c3.787,3.295,9.274,3.589,14.291,3.411c0.757-0.027,1.53-0.059,2.257,0.153c0.727,0.212,1.414,0.719,1.632,1.444
				c0.274,0.915-0.283,1.916-1.076,2.449c-0.792,0.533-1.768,0.7-2.713,0.836c-3.532,0.508-7.096,0.758-10.656,1.008
				c-1.714,0.12-3.429,0.241-5.143,0.361c-2.193,0.154-8.037-0.131-8.444-0.691C82.131,417.946,81.941,411.255,82.679,408.567z"/>
			<path style="fill:#529FB0;" d="M109.982,415.207c-0.83,0.559-1.853,0.734-2.844,0.876c-3.703,0.532-7.438,0.795-11.169,1.056
				c-1.797,0.126-3.594,0.252-5.391,0.378c-1.977,0.139-6.773-0.063-8.353-0.496c0.044,0.716,0.106,1.201,0.172,1.293
				c0.408,0.56,6.252,0.844,8.445,0.691c1.714-0.12,3.429-0.241,5.143-0.361c3.56-0.25,7.124-0.5,10.656-1.008
				c0.945-0.136,1.921-0.303,2.713-0.836c0.676-0.454,1.175-1.249,1.139-2.041C110.34,414.928,110.169,415.081,109.982,415.207z"/>
			<path style="fill:#F69872;" d="M96.301,397.585l-1.265,15.857c0,0,4.595,0.9,7.097-0.038l8.132-31.277L96.301,397.585z"/>
			<path style="fill:#F69872;" d="M88.108,108.999c0,0-10.411-3.854-11.153,0.783c-2.815,17.593,1.596,103.805,13.256,100.755
				C90.211,210.537,94.101,133.082,88.108,108.999z"/>
			<path style="fill:#804223;" d="M78.511,121.676c0,0,2.279-10.673,4.692-13.488c2.557-2.983,6.948-1.818,8.981-1.505
				c2.033,0.313,5.521,4.445,5.521,4.445s-2.188-0.486-9.597-2.129c0,0-5.165,6.746-5.946,13.001L78.511,121.676z"/>
			<path style="fill:#DBE6E6;" d="M93.308,110.152l1.788-7.964c0,0,16.34,3.187,20.055,3.861l2.167,9.432L93.308,110.152z"/>
			<polygon style="fill:#57A3B8;" points="94.423,239.317 85.342,390.176 99.596,390.176 114.771,250.507 			"/>
			
				<line style="fill:none;stroke:#112024;stroke-width:0.25;stroke-miterlimit:10;" x1="110.265" y1="248.029" x2="93.539" y2="382.127"/>
			
				<line style="fill:none;stroke:#112024;stroke-width:0.25;stroke-miterlimit:10;" x1="85.827" y1="382.127" x2="100.056" y2="382.127"/>
			<path style="fill:#63BBD3;" d="M91.273,204.495c0,0-4.679,20.025,0.857,32.585c5.537,12.56,18.458,17.891,18.458,17.891
				L96.301,397.585h13.964c0,0,36.201-134.902,40.817-158.268c2.315-11.721-9.256-34.822-9.256-34.822H91.273z"/>
			<path style="fill:none;stroke:#112024;stroke-width:0.25;stroke-miterlimit:10;" d="M129.031,204.317
				c0,0,13.136,28.149,12.667,39.409c-0.469,11.26-36.326,147.654-36.326,147.654"/>
			<path style="fill:none;stroke:#112024;stroke-width:0.25;stroke-miterlimit:10;" d="M90.211,210.537
				c0,0,23.619,5.641,33.331,4.57c9.712-1.071,20.26-6.356,20.26-6.356"/>
			<path style="fill:#F3FFFF;" d="M88.108,108.999l29.26,6.488c0,0,20.761,20.899,26.676,30.185
				c3.795,5.959-1.118,15.727-6.446,19.597l4.227,39.226c0,0-7.164,3.655-14.201,5.726c-7.037,2.071-39.516-6.722-39.516-6.722
				s4.887-28.724,4.329-34.41C91.756,162.153,88.108,108.999,88.108,108.999z"/>
			<path style="fill:#804223;" d="M116.83,191.18c0,0,13.783-4.581,16.276-15.427l3.432,3.933c0,0-0.904,8.21-8.662,13.371
				c-7.758,5.161-11.128,6.568-11.128,6.568L116.83,191.18z"/>
			<path style="fill:#804223;" d="M108.682,128.196c0,0,2.279-10.673,4.692-13.488c2.557-2.983,6.948-1.818,8.981-1.505
				s5.521,4.141,5.521,4.141s-3.653-1.863-10.507-1.857c0,0-3.819,9.542-4.601,15.798L108.682,128.196z"/>
			<path style="fill:#F69872;" d="M117.368,115.487c0,0,14.601-0.519,15.701,8.057c1.101,8.577,8.611,92.789,16.313,105.525
				l-5.198,5.851c0,0-17.996-51.176-18.493-56.885c-0.497-5.709,1.585-13.81,1.585-13.81S114.034,128.52,117.368,115.487z"/>
			<path style="fill:#804223;" d="M84.66,121.812c0,0,3.885-7.105,8.44-6.515c4.555,0.59,5.703,6.395,4.915,10.553l-2.072-0.245
				c0,0,0.376-7.16-2.622-8.189c-3.318-1.139-6.922,4.96-6.922,4.96L84.66,121.812z"/>
			<path style="fill:none;stroke:#112024;stroke-width:0.25;stroke-miterlimit:10;" d="M150.359,227.733
				c0,0-1.988,3.234-9.26,10.036"/>
			<path style="fill:#F5F5F5;" d="M94.057,410.71c0.746-0.107,1.495,0.275,2.015,0.82c0.52,0.545,0.854,1.237,1.178,1.917
				c1.021-0.704,2.162-1.403,3.183-2.107c0.571-0.393,1.226-0.806,1.907-0.673c0.506,0.099,0.9,0.481,1.289,0.819
				c3.787,3.295,9.274,3.589,14.291,3.411c0.757-0.027,1.53-0.059,2.257,0.153c0.727,0.212,1.414,0.719,1.632,1.444
				c0.274,0.914-0.283,1.916-1.076,2.448c-0.792,0.533-1.768,0.7-2.713,0.836c-3.532,0.508-7.096,0.758-10.656,1.008
				c-1.714,0.12-3.428,0.241-5.143,0.361c-2.193,0.154-8.037-0.131-8.445-0.691C93.509,420.089,93.319,413.399,94.057,410.71z"/>
			<path style="fill:#64BFD4;" d="M121.361,417.35c-0.83,0.558-1.853,0.734-2.844,0.876c-3.703,0.532-7.438,0.795-11.169,1.056
				c-1.797,0.126-3.594,0.252-5.39,0.378c-1.977,0.139-6.773-0.063-8.353-0.496c0.044,0.716,0.106,1.201,0.172,1.293
				c0.408,0.56,6.252,0.844,8.445,0.691c1.714-0.12,3.428-0.24,5.143-0.361c3.56-0.25,7.124-0.5,10.656-1.008
				c0.945-0.136,1.921-0.303,2.713-0.836c0.676-0.454,1.175-1.249,1.139-2.041C121.719,417.072,121.547,417.224,121.361,417.35z"/>
			
				<line style="fill:none;stroke:#112024;stroke-width:0.25;stroke-miterlimit:10;" x1="96.922" y1="391.38" x2="111.927" y2="391.38"/>
			<g>
				<path style="fill:#804223;" d="M66.6,126.841c1.244,22.473,2.331,45.819-7.227,66.7c-1.506,3.291-3.234,7.189-1.136,10.166
					c1.11,1.574,3.058,2.466,4.92,3.273c8.163,3.54,16.537,6.879,25.442,8.452c8.905,1.573,18.47,1.269,26.725-2.255
					c3.377-9.919,3.963-19.673,3.483-30.006c-0.759-16.339-2.269-32.641-4.526-48.852c-0.335-2.409-0.738-4.933-2.345-6.867
					c-1.965-2.365-5.315-3.366-8.48-4.143c-4.992-1.226-10.056-2.22-15.166-2.977c-3.852-0.571-7.822-1.004-11.653-0.255
					C73.343,120.72,66.383,122.821,66.6,126.841z"/>
				<path style="fill:#914B29;" d="M63.135,132.627c0.045,21.207-0.083,43.227-9.151,62.397c-1.429,3.021-3.074,6.603-1.424,9.509
					c0.872,1.536,2.489,2.472,4.036,3.325c6.781,3.738,13.751,7.297,21.251,9.221c7.5,1.924,15.646,2.115,22.824-0.789
					c3.318-9.165,4.256-18.313,4.314-28.059c0.091-15.411-0.458-30.825-1.647-46.19c-0.177-2.284-0.405-4.678-1.684-6.578
					c-1.564-2.324-4.367-3.432-7.024-4.321c-4.189-1.402-8.45-2.59-12.761-3.558c-3.25-0.729-6.606-1.335-9.896-0.821
					C69.145,127.205,63.132,128.834,63.135,132.627z"/>
				<path style="fill:#B05C33;" d="M103.294,141.502c-1.184-2.984-4.398-2.651-5.406,3.037c-1.095,6.177,4.301,17.85,2.623,30.495
					c-9.094,0.666-16.452,1.11-22.079,0.219c-8.41-1.331-14.871-2.717-19.481-8.162c1.319-2.518,1.139-6.004,0.932-8.839
					c-0.454-6.214-1.217-12.482-0.315-18.647c0.903-6.165,5.928-15.592,9.852-16.911c6.517-1.407,22.028,1.709,32.143,6.479
					C103.964,130.307,107.779,137.62,103.294,141.502z"/>
				<path style="fill:#804223;" d="M65.226,183.919l33.501,6.793c0,0-4.178,17.96-7.275,19.905
					c-3.097,1.945-25.6-3.086-29.354-7.117C58.345,199.469,65.226,183.919,65.226,183.919z"/>
				<path style="fill:#804223;" d="M77.942,149.156l-2.337,2.169c-1.186,1.101-1.272,2.948-0.194,4.155l2.08,2.327
					c1.038,1.161,2.796,1.322,4.028,0.37l2.221-1.716c1.258-0.972,1.527-2.763,0.609-4.062l-1.964-2.78
					C81.349,148.153,79.258,147.935,77.942,149.156z"/>
			</g>
			<path style="fill:#2C1817;" d="M112.138,77.358c5.424,1.957,11.192,2.956,16.959,2.937c0.474-4.061-2.205-8.031-5.781-10.012
				c-4.035-2.234-10.389-2.924-14.782-1.343C102,71.291,108.674,76.109,112.138,77.358z"/>
			<g>
				<path style="fill:#C94748;" d="M93.866,73.734h-5.507c0,0-0.5,1.729-0.378,2.576c0,0,2.611,0,5.539-0.6L93.866,73.734z"/>
				<path style="fill:#F55657;" d="M155.882,67.057l-27.729,2.851c-2.461-4.672-11.321-13.081-21.503-13.428
					c-1.079-0.041-2.184,0.01-3.292,0.171c-9.482,1.361-14.999,9.926-14.999,17.083c1.009-2.842,2.546-2.249,3.748-2.061
					c1.271,0.198,1.351,2.368,1.413,4.036c4.754-0.145,11.774-0.426,19.471-0.96v0.001c0,0,0.037-0.003,0.058-0.006
					c8.215-0.571,17.188-1.429,24.985-2.718C159.095,68.546,155.882,67.057,155.882,67.057z"/>
				<path style="fill:#F3FFFF;" d="M112.99,74.752c0.389-7.801-6.068-17.848-6.34-18.272c10.182,0.348,19.042,8.757,21.503,13.428
					C122.538,73.897,112.99,74.752,112.99,74.752z"/>
			</g>
		</g>
		<g>
			<g>
				<path style="fill:#F68A5D;" d="M175.621,277.375l3.692,40.897l-3.147,12.543c-1.024,4.082-1.4,8.301-1.112,12.5l4.611,67.321
					l6.274,0.672l19.103-143.205L175.621,277.375z"/>
				<g>
					<path style="fill:#FFF1D3;" d="M207.675,417.112c0,0,1.666-2.686-3.756-4.614c-3.667-1.304-16.819-4.832-16.819-4.832
						s-1.235,4.483-5.512,0.225c-0.356-0.354-0.821-0.59-1.32-0.639c-0.737-0.072-1.64,0.171-1.684,1.776
						c-0.074,2.728-0.197,7.274-0.197,7.274L207.675,417.112z"/>
					<path style="fill:#FFF1D3;" d="M185.667,409.516c-0.518-0.612-0.718-1.479-0.521-2.255c0.197-0.777,0.763-1.511,1.532-1.735
						c3.897-1.137,4.42,0.029,4.441,0.84c0.057,2.226,0.074,2.007,1.311,2.86C189.745,408.759,188.748,408.604,185.667,409.516z"/>
					
						<path style="fill:none;stroke:#FCFCFC;stroke-width:0.25;stroke-linecap:round;stroke-linejoin:round;stroke-miterlimit:10;" d="
						M185.667,409.516c0,0,8.559,1.796,9.994,3.427c1.435,1.631,0.806,3.848,0.806,3.848"/>
					<polygon style="fill:#4C6A87;" points="190.55,412.775 188.014,412.018 186.488,415.887 189.18,415.96 					"/>
					<polygon style="fill:#4C6A87;" points="187.236,411.997 185.126,411.414 182.882,415.789 185.574,415.862 					"/>
					
						<line style="fill:none;stroke:#FCFCFC;stroke-width:0.25;stroke-linecap:round;stroke-linejoin:round;stroke-miterlimit:10;" x1="192.787" y1="409.35" x2="191.18" y2="410.927"/>
					
						<line style="fill:none;stroke:#FCFCFC;stroke-width:0.25;stroke-linecap:round;stroke-linejoin:round;stroke-miterlimit:10;" x1="194.923" y1="410.142" x2="193.504" y2="411.724"/>
					
						<path style="fill:none;stroke:#FCFCFC;stroke-width:0.25;stroke-linecap:round;stroke-linejoin:round;stroke-miterlimit:10;" d="
						M187.29,410.011c0,0-1.203,1.555-3.399,0.718c-2.195-0.837-2.567-2.603-5.25-2.254"/>
					<path style="fill:#5C80A3;" d="M207.675,417.112l-29.288-0.81l-0.018,0.659c-0.009,0.342,0.26,0.626,0.602,0.636l28.05,0.776
						c0.342,0.009,0.626-0.26,0.636-0.602L207.675,417.112z"/>
				</g>
				<path style="fill:#804223;" d="M224.748,217.409l-13.687,95.943l-36.118,0.355c0,0-0.212-65.098,3.665-97L224.748,217.409z"/>
				
					<line style="fill:none;stroke:#112024;stroke-width:0.25;stroke-miterlimit:10;" x1="174.941" y1="307.332" x2="188.435" y2="307.332"/>
			</g>
			<g>
				<path style="fill:#F69872;" d="M191.884,281.127l4.893,40.77L194,334.528c-0.904,4.111-1.155,8.338-0.744,12.527l6.588,67.156
					l6.291,0.487l14.884-143.705L191.884,281.127z"/>
				<g>
					<path style="fill:#FFF1D3;" d="M228.033,419.861c0,0,1.586-2.734-3.89-4.502c-3.703-1.195-16.954-4.335-16.954-4.335
						s-1.103,4.518-5.503,0.387c-0.366-0.343-0.838-0.566-1.339-0.6c-0.738-0.05-1.635,0.219-1.631,1.825
						c0.006,2.729,0.017,7.277,0.017,7.277L228.033,419.861z"/>
					<path style="fill:#FFF1D3;" d="M205.811,412.915c-0.536-0.596-0.761-1.457-0.587-2.239c0.174-0.782,0.718-1.533,1.48-1.779
						c3.862-1.251,4.419-0.101,4.464,0.709c0.122,2.224,0.133,2.004,1.395,2.82C209.865,412.039,208.864,411.914,205.811,412.915z"
						/>
					
						<path style="fill:none;stroke:#FCFCFC;stroke-width:0.25;stroke-linecap:round;stroke-linejoin:round;stroke-miterlimit:10;" d="
						M205.811,412.915c0,0,8.609,1.544,10.09,3.132c1.482,1.588,0.918,3.823,0.918,3.823"/>
					<polygon style="fill:#4C6A87;" points="210.788,416.029 208.231,415.348 206.819,419.259 209.512,419.253 					"/>
					<polygon style="fill:#4C6A87;" points="207.452,415.35 205.326,414.829 203.211,419.268 205.905,419.262 					"/>
					
						<line style="fill:none;stroke:#FCFCFC;stroke-width:0.25;stroke-linecap:round;stroke-linejoin:round;stroke-miterlimit:10;" x1="212.923" y1="412.541" x2="211.364" y2="414.164"/>
					
						<line style="fill:none;stroke:#FCFCFC;stroke-width:0.25;stroke-linecap:round;stroke-linejoin:round;stroke-miterlimit:10;" x1="215.081" y1="413.27" x2="213.709" y2="414.892"/>
					
						<path style="fill:none;stroke:#FCFCFC;stroke-width:0.25;stroke-linecap:round;stroke-linejoin:round;stroke-miterlimit:10;" d="
						M207.448,413.363c0,0-1.157,1.59-3.376,0.818c-2.219-0.772-2.642-2.527-5.314-2.099"/>
					<path style="fill:#5C80A3;" d="M228.033,419.861l-29.299,0.052l0.001,0.659c0.001,0.342,0.279,0.619,0.621,0.618l28.061-0.049
						c0.342-0.001,0.619-0.279,0.618-0.621L228.033,419.861z"/>
				</g>
				<path style="fill:#B05C33;" d="M233.686,216.707l-14.075,96.511l-31.175,0.489c0,0-0.155-65.098,2.672-97H233.686z"/>
				
					<line style="fill:none;stroke:#112024;stroke-width:0.25;stroke-miterlimit:10;" x1="214.334" y1="216.707" x2="205.185" y2="307.332"/>
				<path style="fill:none;stroke:#112024;stroke-width:0.25;stroke-miterlimit:10;" d="M224.748,217.409
					c0,0-2.325,16.963-4.278,21.825c-1.953,4.862-9.029,6.125-9.029,6.125"/>
				<path style="fill:#BF6437;" d="M218.908,267.083h-22.05c0,0-2.001,25.488-2.408,27.992c-0.407,2.503,10.592,7.43,10.592,7.43
					l10.348-5.395L218.908,267.083z"/>
				
					<line style="fill:none;stroke:#112024;stroke-width:0.25;stroke-miterlimit:10;" x1="218.173" y1="273.353" x2="196.362" y2="273.313"/>
				
					<line style="fill:none;stroke:#112024;stroke-width:0.25;stroke-miterlimit:10;" x1="220.47" y1="307.332" x2="188.435" y2="307.332"/>
			</g>
			<g>
				<path style="fill:#A89363;" d="M251.112,68.522c0,0-2.671,8.765-25.323,18.088c-22.652,9.324-35.994,5.751-35.994,5.751
					s6.888-16.544,23.672-21.118C230.251,66.67,251.112,68.522,251.112,68.522z"/>
				<polygon style="fill:#F68A5D;" points="205.999,79.187 201.214,108.941 219.027,115.671 220.454,91.552 				"/>
				<path style="fill:#F69872;" d="M234.396,81.472c-2.274,18.749-4.433,31.545-20.546,15.281
					c-5.581-5.634-9.314-11.087-7.56-18.821c1.754-7.734,9.446-12.582,17.18-10.828C231.205,68.858,235.351,73.599,234.396,81.472z"
					/>
				<path style="fill:#2C1817;" d="M237.99,66.896c1.402,1.094,2.627,2.398,3.581,3.86c0.435,0.666,0.481,2.159,0.334,2.914
					c-0.203,1.044-0.914,1.997-1.895,2.406c-0.982,0.409-2.209,0.215-2.958-0.54c1.029,0.459,0.497,2.259-0.453,2.865
					c-0.95,0.606-2.18,0.449-3.288,0.243c-3.957-0.735-7.885-1.835-11.42-3.76c-2.144-1.167-4.354-3.086-4.159-5.52
					c0.138-1.725,1.482-3.115,2.928-4.064C225.983,61.806,233.079,63.066,237.99,66.896z"/>
				<path style="fill:#2C1817;" d="M231.712,82.466c-0.309,0.473-2.495-0.407-3.642-1.155c-1.146-0.748-1.291-1.39-0.982-1.863
					c0.309-0.473,1.961,0.058,3.107,0.806C231.342,81.002,232.021,81.993,231.712,82.466z"/>
				<path style="fill:#2C1817;" d="M229.385,85.276c-0.119,0.775-0.515,1.358-0.884,1.301c-0.369-0.057-0.572-0.731-0.453-1.506
					c0.119-0.775,0.515-1.358,0.884-1.301C229.301,83.826,229.504,84.501,229.385,85.276z"/>
				<path style="fill:#F69872;" d="M233.874,81.77c0,0,1.943,7.566,2.055,10.83c0.067,1.946-4.651-0.112-4.651-0.112L233.874,81.77z
					"/>
				<path style="fill:#2C1817;" d="M217.871,80.463c-0.691,1.207-2.098,2.378-3.34,1.752c-0.467-0.236-0.785-0.68-1.129-1.074
					c-0.685-0.784-1.582-1.438-2.611-1.592c-1.03-0.154-2.188,0.296-2.648,1.23c-0.605,1.23,0.152,2.692,1.045,3.732
					c0.893,1.04,1.997,2.043,2.209,3.397c0.273,1.754-1.089,3.361-2.598,4.296c-1.972,1.223-4.402,1.765-6.671,1.278
					c-2.269-0.487-4.326-2.061-5.197-4.212c-0.776-1.917-0.582-4.127,0.165-6.055c0.747-1.929,2.006-3.615,3.355-5.183
					c3.172-3.689,7.204-7.004,12.016-7.721c2.195-0.327,5.646,0.031,6.558,2.459C219.852,74.968,218.985,78.515,217.871,80.463z"/>
				<path style="fill:#F0BB6B;" d="M197.787,68.487c0.169,3.594,0.422,6.709,0.422,6.709l27.352-12.63c0,0-1.351-2.018-3.059-4.382
					c-2.28-3.143-5.198-6.906-6.428-7.328c-2.168-0.741-9.758,5.311-11.86,5.686c-2.093,0.375-4.373,0.619-5.865,1.248
					C197.496,58.147,197.571,63.739,197.787,68.487z"/>
				<path style="fill:#804223;" d="M197.787,68.487c0.169,3.594,0.422,6.709,0.422,6.709l27.352-12.63c0,0-1.351-2.018-3.059-4.382
					c-2.937,0.488-10.068,1.849-14.929,4.035C204.064,63.796,200.367,66.46,197.787,68.487z"/>
				<path style="fill:#FEDC95;" d="M251.112,68.522c-23.717-1.405-46.173,9.033-61.317,23.84
					c-1.304-3.244,1.085-16.791,18.099-24.211C232.756,57.308,248.064,63.249,251.112,68.522z"/>
				
					<line style="fill:none;stroke:#2C1817;stroke-width:0.5;stroke-miterlimit:10;" x1="204.218" y1="56.54" x2="200.168" y2="59.405"/>
				<path style="fill:none;stroke:#2C1817;stroke-width:0.25;stroke-miterlimit:10;" d="M229.104,98.254
					c-1.647,0.863-3.961-0.056-4.567-1.813"/>
				<path style="fill:none;stroke:#2C1817;stroke-width:0.25;stroke-miterlimit:10;" d="M212.229,83.8
					c-0.106-1.095-1.295-1.951-2.367-1.704"/>
			</g>
			<g>
				<polygon style="fill:#F5F5F5;" points="264.228,101.31 238.827,101.31 225.563,159.369 246.907,165.195 				"/>
				<polygon style="fill:#B4DFE0;" points="263.365,104.494 241.59,104.494 229.92,156.483 248.064,161.19 				"/>
				<path style="fill:#F5F5F5;" d="M253.248,141.982l-5.389-5.898c-1.83-2.003-4.599-2.86-7.24-2.241l-5.928,1.389l-4.77,21.25
					l18.144,4.707L253.248,141.982z"/>
				<path style="fill:#F5F5F5;" d="M244.559,104.494l3.478,19.234c0.347,1.917,2.089,3.261,4.032,3.108l5.354-0.422l5.943-21.92
					H244.559z"/>
				<polygon style="fill:#FFFFFF;" points="296.556,108.147 275.114,173.617 246.907,165.195 264.228,101.31 				"/>
				<polygon style="fill:#C5F4F5;" points="263.365,104.494 291.567,110.836 272.516,168.482 248.064,161.19 				"/>
				<path style="fill:#FFFFFF;" d="M273.602,165.195l-8.406-15.905c-1.127-2.132-3.341-3.466-5.753-3.466l0,0
					c-1.98,0-3.852-0.902-5.087-2.45l-1.109-1.391l-5.184,19.208l24.452,7.292L273.602,165.195z"/>
				<path style="fill:#FFFFFF;" d="M263.365,104.494l-5.943,21.92l4.385,3.245c1.387,1.027,2.091,2.738,1.827,4.444l-0.568,3.669
					c-0.409,2.642,0.482,5.32,2.394,7.189l11.207,10.962l14.901-45.088L263.365,104.494z"/>
				<path style="fill:#B2B569;" d="M263.365,104.494l-5.232,19.297l5.76,4.544c1.623,1.281,2.393,3.362,1.993,5.391l-0.683,3.462
					c-0.596,3.019,0.59,6.113,3.05,7.961l9.594,7.206l13.721-41.518L263.365,104.494z"/>
				<path style="fill:#A4A65F;" d="M258.133,123.79l-5.198,0.115c-1.664,0.037-3.107-1.145-3.399-2.784l-2.96-16.628h16.788
					L258.133,123.79z"/>
				<path style="fill:#B2B569;" d="M272.516,168.482l-9.446-17.342c-0.944-1.734-2.848-2.719-4.809-2.488l0,0
					c-1.983,0.233-3.905-0.777-4.838-2.542l-0.886-1.677l-4.472,16.757L272.516,168.482z"/>
				<path style="fill:#A4A65F;" d="M252.536,144.433l-4.791-5.774c-1.946-2.345-5.068-3.36-8.021-2.607l-5.535,1.411l-4.269,19.019
					l18.144,4.707L252.536,144.433z"/>
			</g>
			<path style="fill:#F68A5D;" d="M229.92,128.266c0,0,2.227-3.699,2.721-4.359c0.495-0.66,4.866,1.649,5.443,2.557
				c0.577,0.907-1.773,2.649-5.175,0.747l-0.733,3.209L229.92,128.266z"/>
			<g>
				<path style="fill:#FFC16E;" d="M173.81,223.773c0,0,7.434-94.709,12.492-101.754c5.059-7.044,13.543-16.998,13.543-16.998
					s29.676,10.951,30.076,18.768c0.624,12.192,8.413,98.618,8.413,98.618c-1.872,2.885-3.867,4.318-7.813,2.755
					c-3.946-1.563-6.21-4.599-9.412-7.384c-1.226,3.596-3.42,8.13-6.666,10.106c-1.893,1.153-27.758,4.837-31.469,4.17
					C179.262,231.389,175.401,227.191,173.81,223.773z"/>
				<path style="fill:none;stroke:#112024;stroke-width:0.25;stroke-miterlimit:10;" d="M221.108,217.779
					c-1.334-11.534-1.656-23.079-2.37-34.668"/>
				<path style="fill:none;stroke:#112024;stroke-width:0.25;stroke-miterlimit:10;" d="M205.815,217.11
					c-11.487-9.762-21.165-21.647-28.397-34.874"/>
				<path style="fill:none;stroke:#112024;stroke-width:0.25;stroke-miterlimit:10;" d="M187.651,212.127
					c-4.381-6.578-7.959-13.69-10.629-21.128"/>
				<path style="fill:#FFD091;" d="M223.847,117.109c-0.296-2.362-0.674-4.902-2.332-6.611c-0.848-0.874-1.956-1.441-3.049-1.98
					c-5.315-2.62-10.782-4.934-16.364-6.926l-2.258,3.43L223.847,117.109z"/>
			</g>
			<g>
				<path style="fill:#F69872;" d="M224.748,119.613c6.544,0.938,26.518,42.532,29.213,41.62c2.696-0.913,28.935-19.25,28.935-19.25
					s1.665-5.742,2.714-5.787c1.049-0.046,1.73,0.089,1.73,0.089l1.428-4.361c0,0,3.09,2.709,2.1,6.626
					c-0.486,1.923-5.258,8.373-5.258,8.373s-27.684,28.989-33.074,27.079c-5.39-1.91-36.208-29.054-38.202-34.578
					C212.34,133.899,218.261,118.683,224.748,119.613z"/>
				<path style="fill:#FFC16E;" d="M227.437,119.572l23.408,31.196l-11.06,16.699c0,0-24.608-14.791-28.725-23.034
					c-4.116-8.243-1.223-21.774,3.273-24.861C218.83,116.485,227.437,119.572,227.437,119.572z"/>
				<path style="fill:none;stroke:#112024;stroke-width:0.25;stroke-miterlimit:10;" d="M210.374,126.177
					c-2.165,2.541-0.843,15.173,1.369,19.623c0.913,1.837,12.091,11.501,21.362,17.429"/>
			</g>
			<g>
				<path style="fill:#572D18;" d="M239.316,192.176c0,0,0.17-4.849-4.685-11.417l0.832,9.453
					C235.464,190.212,236.345,191.55,239.316,192.176z"/>
				<path style="fill:#804223;" d="M185.991,138.5l31.956,38.86l-4.574,4.379c0,0-3.301-0.938-10.662,1.877
					c-7.361,2.815-22.687-17.558-20.81-24.105s-0.158-16.757-0.158-16.757L185.991,138.5z"/>
				<path style="fill:#914B29;" d="M193.546,112.632c0,0-8.064,9.591-8.884,14.216c-0.82,4.625,0.499,8.96,1.329,11.652
					l-4.249,4.253c0,0-1.654-8.074-1.497-13.276c0.156-5.202,4.057-10.442,6.057-13.807
					C187.133,114.271,193.546,112.632,193.546,112.632z"/>
				<path style="fill:#914B29;" d="M217.947,177.36l-4.574,4.379c0,0,15.212,14.394,24.272,16.074l1.672-5.637
					C239.316,192.176,226.759,186.471,217.947,177.36z"/>
				<path style="fill:#572D18;" d="M206.072,176.693c0,0-10.672-14.157-17.893-20.236c0,0-4.535,4.254-3.753,6.771
					c0.782,2.517,9.227,13.934,12.354,15.341C199.907,179.977,206.072,176.693,206.072,176.693z"/>
				<path style="fill:none;stroke:#112024;stroke-width:0.25;stroke-miterlimit:10;" d="M213.153,177.358
					c-4.35-6.079-9.449-11.577-14.533-17.057c-4.492-4.842-8.984-9.684-13.476-14.527"/>
			</g>
		</g>
		<g>
			<g>
				<path style="fill:#F69872;" d="M371.749,176.958c0,0,9.208,11.885,13.587,14.075c4.379,2.189,49.505-28.775,49.505-28.775
					l2.727,11.222c0,0-45.595,32.546-51.92,32.566c-8.855,0.028-27.837-22.207-27.837-22.207L371.749,176.958z"/>
				<path style="fill:#F68A5D;" d="M446.051,157.073c0.017-0.277,0.056-0.583-0.136-0.807c-0.216-0.251-0.661-0.288-0.987-0.152
					c-0.325,0.137-0.547,0.406-0.71,0.684c-0.555,0.945-0.556,2.117-0.003,3.066c0.383,0.658,2.525,2.18,3.023,0.816
					c0.193-0.529-0.496-1.088-0.729-1.534C446.172,158.497,446.007,157.782,446.051,157.073z"/>
				<path style="fill:#FFD091;" d="M362.758,148.764c3.348,13.333,9.15,26.006,16.862,37.387
					c-6.135,5.117-10.481,8.606-14.685,11.811c-7.509-11.763-14.231-24.667-15.89-38.524c-0.741-6.19-0.815-13.374,3.807-17.557
					c0.789-0.714,1.812-1.334,2.86-1.144c0.88,0.16,1.557,0.851,2.137,1.532C359.986,144.777,361.955,145.567,362.758,148.764z"/>
				<path style="fill:#FFFFFF;" d="M446.112,132.971c0,0-1.941,27.034-3.78,37.744c-1.848,10.713-4.614,23.732-4.614,23.732
					s-8.32,15.361-14.148,18.331l-0.009,0.003c-0.946,0.481-1.778,0.834-2.435,0.999c-4.725,1.175-19.834-2.98-19.834-2.98
					s6.359-23.762,7.569-28.874c1.214-5.103,4.343-37.896,4.343-37.896s13.276,4.364,19.849,3.113
					c0.299-0.053,0.593-0.123,0.895-0.196C440.353,145.406,446.112,132.971,446.112,132.971z"/>
				<path style="fill:#E3E3E3;" d="M446.112,132.971c0,0-1.941,27.034-3.78,37.744c-1.848,10.713-4.614,23.732-4.614,23.732
					s-8.32,15.361-14.148,18.331l10.379-65.831C440.353,145.406,446.112,132.971,446.112,132.971z"/>
				<path style="fill:#F69872;" d="M444.094,159.535c-0.84-0.093-1.582-0.122-1.952-0.112c-0.655,0.018-1.339,0.262-1.664,0.75
					c-0.196,0.295-0.244,0.648-0.221,0.987c0.032,0.474,0.511,0.995,0.969,1.261c-0.552,0.025-1.06,0.388-1.19,0.85
					c-0.13,0.462,0.168,0.978,0.645,1.221c-0.451,0.309-0.839,0.73-0.905,1.223c-0.066,0.493,0.608,1.014,1.176,1.111
					c-0.511,0.193-0.855,0.672-0.827,1.152c0.035,0.607,0.613,1.112,1.268,1.34c0.656,0.228,1.382,0.234,2.089,0.236
					c0.621,0.002,1.242,0.005,1.864,0.007c0.643,0.002,1.434-0.076,1.673-0.588c0.255-0.546-0.343-1.147-0.229-1.727
					c0.086-0.434,0.543-0.739,0.738-1.145c0.515-1.077-0.948-2.348-0.355-3.394c0.142-0.251,0.387-0.445,0.584-0.666
					C449.165,160.462,446.295,159.779,444.094,159.535z"/>
				
					<line style="fill:none;stroke:#112024;stroke-width:0.25;stroke-miterlimit:10;" x1="361.708" y1="192.729" x2="376.268" y2="180.917"/>
			</g>
			<path style="fill:#A89363;" d="M364.392,130.275c0,0-6.298-6.165-13.856-11.351c-7.558-5.186-30.082-18.492-32.048-14.36
				C318.488,104.564,333.913,124.174,364.392,130.275z"/>
			<g>
				<g>
					<polygon style="fill:#F68A5D;" points="348.323,93.6 343.313,125.653 360.61,128.896 364.115,104.204 					"/>
					<path style="fill:#F69872;" d="M376.793,92.574c-0.082,18.886-0.742,31.846-18.633,17.562
						c-6.198-4.948-10.538-9.931-9.693-17.817c0.845-7.885,7.922-13.593,15.807-12.748
						C372.159,80.415,376.828,84.643,376.793,92.574z"/>
					<path style="fill:#2C1817;" d="M374.243,93.872c-0.252,0.506-2.526-0.114-3.751-0.724c-1.226-0.61-1.443-1.231-1.191-1.736
						c0.252-0.506,1.954-0.17,3.18,0.44C373.706,92.462,374.495,93.367,374.243,93.872z"/>
					<path style="fill:#2C1817;" d="M372.257,96.934c-0.028,0.784-0.354,1.408-0.727,1.395c-0.373-0.013-0.653-0.66-0.624-1.444
						c0.028-0.784,0.354-1.408,0.727-1.395C372.006,95.503,372.285,96.15,372.257,96.934z"/>
					<path style="fill:#F69872;" d="M376.309,92.93c0,0,2.807,7.289,3.298,10.518c0.293,1.926-4.633,0.429-4.633,0.429
						L376.309,92.93z"/>
					<path style="fill:none;stroke:#2C1817;stroke-width:0.25;stroke-miterlimit:10;" d="M373.485,109.857
						c-1.535,1.049-3.941,0.404-4.747-1.271"/>
				</g>
				<path style="fill:#2C1817;" d="M345.313,107.034c-9.758-7.374-5.391-29.298,3.601-33.183c1.577-0.681,5.653,1.106,6.628,2.521
					c0.627-2.424,4.65-4.663,6.837-4.881c2.188-0.218,13.942,3.996,17.591,5.635c2.071,0.93,4.582,1.221,7.359-0.61
					c3.337,2.89,5.016,11.94-3.072,15.486c-4.72,2.069-17.631-1.484-26.513-6.587c3.36,3.15,6.78,11.996-2.904,9.326
					c-0.885-0.253-2.042-0.457-2.961-0.418s-1.874,0.425-2.367,1.202c-0.672,1.061-0.271,2.531,0.585,3.45
					c0.856,0.919,2.06,1.414,3.224,1.883c0.407,0.891,1.178,2.965-0.165,5.258C352.662,106.963,347.423,108.628,345.313,107.034z"/>
				<path style="fill:none;stroke:#2C1817;stroke-width:0.25;stroke-miterlimit:10;" d="M351.095,96.35
					c1.194,0.225,2.235,1.133,2.62,2.286"/>
			</g>
			<g>
				<polygon style="fill:#F69872;" points="294.156,367.966 287.895,415.096 293.511,414.21 309.143,369.268 				"/>
				<g>
					<path style="fill:#F5F5F5;" d="M305.382,413.405c9.667,0.376,9.004,5.614,9.004,5.614l-28.545-0.526l0.108-5.837
						c0.024-1.319,0.591-2.508,1.454-3.049c0.929-0.582,1.938,0.431,2.473,1.388c0.029,0.051,0.054,0.121,0.014,0.163
						s-0.124-0.047-0.067-0.063c0.231-0.503,0.636-1.195,0.867-1.698c0.064-0.139,0.13-0.281,0.239-0.386
						c0.177-0.171,0.437-0.219,0.681-0.251c1.127-0.146,2.278-0.105,3.391,0.122c0.33,0.067,0.671,0.158,0.923,0.381
						c0.649,0.575,0.14,3.044-0.525,3.6C294.734,413.418,300.3,413.208,305.382,413.405z"/>
					<polygon style="fill:#5C80A3;" points="314.386,419.019 285.841,418.493 285.801,420.663 288.627,420.715 289.287,419.642 
						290.44,420.749 314.346,421.19 					"/>
				</g>
				<polygon style="fill:#57A3B8;" points="352.256,234.92 298.52,406.488 289.112,404.839 314.098,222.184 				"/>
				
					<line style="fill:none;stroke:#112024;stroke-width:0.25;stroke-miterlimit:10;" x1="290.134" y1="398.245" x2="300.416" y2="400.433"/>
				
					<line style="fill:none;stroke:#112024;stroke-width:0.25;stroke-miterlimit:10;" x1="295.275" y1="399.339" x2="338.452" y2="238.572"/>
			</g>
			<g>
				<polygon style="fill:#F69872;" points="388.203,372.056 417.188,410.785 421.535,407.121 402.299,365.121 				"/>
				<path style="fill:#63BBD3;" d="M305.695,227.733c0,0-9.853,21.621,3.213,40.37c13.066,18.749,101.697,133.886,101.697,133.886
					l8.505-6.203l-83.7-167.541C335.409,228.245,327.206,199.503,305.695,227.733z"/>
				<g>
					<path style="fill:#F5F5F5;" d="M431.276,400.289c8.466-4.681,10.61,0.144,10.61,0.144l-24.698,14.322l-2.928-5.05
						c-0.662-1.141-0.792-2.452-0.334-3.361c0.493-0.979,1.881-0.634,2.834-0.092c0.051,0.029,0.109,0.075,0.096,0.133
						c-0.012,0.057-0.13,0.023-0.09-0.02c-0.063-0.55-0.074-1.351-0.137-1.901c-0.017-0.151-0.034-0.307,0.005-0.455
						c0.063-0.238,0.26-0.414,0.453-0.568c0.888-0.708,1.895-1.269,2.965-1.651c0.317-0.113,0.656-0.212,0.988-0.152
						c0.852,0.156,1.695,2.532,1.413,3.352C422.171,405.81,426.826,402.75,431.276,400.289z"/>
					<polygon style="fill:#5C80A3;" points="441.886,400.433 417.188,414.755 418.277,416.633 420.722,415.215 420.731,413.955 
						422.291,414.306 442.975,402.311 					"/>
				</g>
				<path style="fill:none;stroke:#112024;stroke-width:0.25;stroke-miterlimit:10;" d="M412.922,393.038
					c0,0-79.193-122.218-86.231-132.071c-7.037-9.852-12.223-35.782-3.296-46.979"/>
				
					<line style="fill:none;stroke:#112024;stroke-width:0.25;stroke-miterlimit:10;" x1="416.544" y1="390.258" x2="407.136" y2="397.48"/>
				<path style="fill:none;stroke:#112024;stroke-width:0.25;stroke-miterlimit:10;" d="M328.005,213.989
					c0,0,3.384,23.99,4.085,28.916c0.701,4.926-7.684,14.162-7.684,14.162"/>
			</g>
			<g>
				<path style="fill:#572D18;" d="M364.392,130.275c0,0,6.273,9.339,3.758,15.477c-2.515,6.138-12.862,70.614-14.331,92.421
					c0,0-21.334,1.528-23.649-11.56c0,0-15.591,16.621-31.609,15.115c0,0,0.549-46.713,8.514-75.206
					c7.965-28.494,24.324-46.513,24.324-46.513L364.392,130.275z"/>
				<path style="fill:none;stroke:#112024;stroke-width:0.25;stroke-miterlimit:10;" d="M330.248,226.373
					c0.809-11.199,2.09-22.365,3.839-33.456"/>
				<path style="fill:none;stroke:#112024;stroke-width:0.25;stroke-miterlimit:10;" d="M336.046,218.693
					c10.411-9.813,18.79-21.771,24.459-34.906"/>
				<path style="fill:none;stroke:#112024;stroke-width:0.25;stroke-miterlimit:10;" d="M346.711,222.19
					c1.988-2.404,3.977-4.809,5.965-7.213c2.206-2.667,4.498-5.523,4.987-8.95"/>
				<path style="fill:#FFD091;" d="M318.488,104.564c-4.171,0.534-8.419,3.862-8.874,8.042c-0.386,3.538,1.225,6.961,1.731,10.484
					c0.51,3.545-0.835,7.637,1.099,10.651c4.698,7.321,20.739-0.451,27.398-2.531c7.977-2.492,16.33-2.439,24.551-0.934
					C347.021,120.586,318.488,104.564,318.488,104.564z"/>
			</g>
			<g>
				<path style="fill:#2C232E;" d="M298.674,415.307c-0.384,2.918,1.671,5.284,4.59,5.284c2.918,0,5.595-2.366,5.979-5.284
					c0.384-2.918-1.671-5.284-4.59-5.284C301.734,410.022,299.057,412.388,298.674,415.307z"/>
				<path style="fill:#554357;" d="M300.986,415.307c-0.216,1.641,0.94,2.971,2.581,2.971c1.641,0,3.146-1.33,3.362-2.971
					c0.216-1.641-0.94-2.972-2.581-2.972C302.707,412.335,301.202,413.665,300.986,415.307z"/>
				<path style="fill:#3B2F3D;" d="M304.823,408.721l-0.618,4.705c-0.137,1.039-1.089,1.881-2.128,1.881h-2.076
					c-1.836,0-3.128-1.488-2.887-3.324l0.676-5.143h5.4C304.228,406.84,304.96,407.682,304.823,408.721z"/>
				<path style="fill:#2C232E;" d="M259.866,415.307c-0.383,2.918,1.671,5.284,4.59,5.284c2.918,0,5.595-2.366,5.979-5.284
					c0.384-2.918-1.671-5.284-4.59-5.284C262.927,410.022,260.25,412.388,259.866,415.307z"/>
				<path style="fill:#554357;" d="M262.179,415.307c-0.216,1.641,0.94,2.971,2.581,2.971c1.641,0,3.146-1.33,3.362-2.971
					c0.216-1.641-0.94-2.972-2.581-2.972C263.9,412.335,262.395,413.665,262.179,415.307z"/>
				<path style="fill:#3B2F3D;" d="M266.016,408.721l-0.618,4.705c-0.137,1.039-1.089,1.881-2.128,1.881h-2.076
					c-1.836,0-3.128-1.488-2.887-3.324l0.676-5.143h5.4C265.421,406.84,266.153,407.682,266.016,408.721z"/>
				<path style="fill:#B05C33;" d="M249.096,413.693h44.541l10.372-78.925h-38.907c-5.774,0-11.202,4.321-12.631,10.055
					l-13.756,55.167C236.895,407.283,241.752,413.693,249.096,413.693z"/>
				
					<line style="fill:none;stroke:#112024;stroke-width:0.25;stroke-miterlimit:10;" x1="248.887" y1="359.193" x2="286.979" y2="359.193"/>
				<polygon style="fill:none;stroke:#112024;stroke-width:0.25;stroke-miterlimit:10;" points="248.887,381.757 276.423,381.757 
					271.17,398.245 243.828,398.245 				"/>
				<path style="fill:#804223;" d="M287.188,413.693h10.423c4.334,0,8.31-3.514,8.879-7.848l8.31-63.229
					c0.57-4.334-2.482-7.848-6.817-7.848h-4.79c-5.774,0-11.202,4.321-12.631,10.055l-13.756,55.167
					C274.988,407.283,279.844,413.693,287.188,413.693z"/>
				<polygon style="fill:#2C232E;" points="282.687,255.601 319.791,255.601 320.401,250.956 283.297,250.956 				"/>
				<polygon style="fill:#2C232E;" points="301.59,334.767 305.037,334.767 315.441,255.601 311.994,255.601 				"/>
				<polygon style="fill:#2C232E;" points="276.632,334.767 280.08,334.767 290.483,255.601 287.036,255.601 				"/>
			</g>
			<g>
				<path style="fill:#F69872;" d="M336.973,185.489c-1.807-1.612-9.851-3.705-12.241-3.315l-23.543,59.652
					c-2.137,0.784-4.171,1.784-4.975,3.434c-0.14,0.287-1.321,2.86-1.408,5.235c-0.018,0.499,0.012,1.03,0.296,1.44
					c0.284,0.411,0.901,0.625,1.299,0.324c0.548,0.836,1.778,1.132,2.646,0.638c0.571,0.979,2.008,1.32,2.958,0.703
					c-0.101,0.463,0.414,0.876,0.886,0.847c0.473-0.029,0.872-0.352,1.206-0.687c0.897-0.899,1.017-1.461,1.444-2.656l3.453-0.082
					c0.257-0.747,0.417-1.789,0.462-2.578c0.045-0.788-0.151-1.625-0.698-2.195C309.696,244.459,336.743,186.375,336.973,185.489z"
					/>
				<path style="fill:#FFD091;" d="M346.313,140.717c7.613,0.974,9.084,10.753,4.705,21.228
					c-4.379,10.476-15.965,32.812-15.965,32.812l-19.152-1.344c0,0,10.081-25.812,14.46-37.302
					C334.741,144.621,340.058,139.917,346.313,140.717z"/>
				
					<line style="fill:none;stroke:#112024;stroke-width:0.25;stroke-miterlimit:10;" x1="318.659" y1="186.343" x2="339.352" y2="186.343"/>
			</g>
		</g>
	</g>
</g>
<g id="DESIGNED_BY_FREEPIK">
	<g>
		<g id="XMLID_319_">
			<g id="XMLID_338_">
				<path id="XMLID_346_" style="fill:#1C1C1B;" d="M261.442,464.892c-0.49,0.502-0.91,1.054-1.255,1.646l-0.527-0.273
					c-0.076-0.337-0.396-0.569-0.746-0.528c-0.375,0.044-0.643,0.384-0.599,0.759c0.044,0.375,0.384,0.643,0.758,0.599
					c0.074-0.009,0.144-0.029,0.208-0.059l0.511,0.265c-0.284,0.627-0.49,1.289-0.611,1.975l0.845,0.149
					c0.26-1.479,0.962-2.839,2.029-3.932L261.442,464.892z"/>
				<path id="XMLID_345_" style="fill:#1C1C1B;" d="M267.656,462.285c-0.194,0-0.386,0.007-0.577,0.019l-0.083-0.709
					c0.212-0.169,0.335-0.44,0.301-0.73c-0.052-0.445-0.456-0.763-0.901-0.711c-0.445,0.052-0.763,0.455-0.711,0.901
					c0.034,0.288,0.214,0.522,0.458,0.638l0.083,0.707c-0.808,0.132-1.589,0.376-2.332,0.732l0.37,0.774
					c1.058-0.506,2.199-0.762,3.392-0.762c0.562,0,1.124,0.06,1.67,0.178l0.182-0.839
					C268.903,462.352,268.279,462.285,267.656,462.285z"/>
				<path id="XMLID_344_" style="fill:#1C1C1B;" d="M275.133,465.17c0.375-0.046,0.641-0.387,0.595-0.761
					c-0.046-0.375-0.387-0.641-0.761-0.595c-0.35,0.043-0.606,0.344-0.6,0.689l-0.471,0.411c-0.473-0.487-1.007-0.92-1.594-1.29
					l-0.458,0.726c1.284,0.809,2.288,1.955,2.903,3.313l0.782-0.354c-0.284-0.627-0.643-1.214-1.067-1.75l0.455-0.397
					C274.986,465.175,275.059,465.179,275.133,465.17z"/>
				<path id="XMLID_343_" style="fill:#1C1C1B;" d="M267.036,473.845c-0.437,0.026-0.878,0.039-1.31,0.039
					c-0.997,0-1.962-0.069-2.807-0.203c-0.442-0.07-0.958-0.176-1.438-0.331c1.185,2.107,3.476,3.539,6.102,3.539
					c3.233,0,5.959-2.17,6.737-5.1c-0.772,0.509-1.705,0.935-2.784,1.271C270.201,473.478,268.643,473.749,267.036,473.845z"/>
				<path id="XMLID_339_" style="fill:#1C1C1B;" d="M267.656,464.002c-3.796,0-6.884,3.019-6.884,6.73
					c0,0.482,0.052,0.962,0.155,1.428c0.763,0.547,3.064,1.008,6.055,0.828c3.261-0.196,5.998-1.084,7.556-2.444
					c-0.006-0.221-0.023-0.442-0.051-0.659C274.056,466.531,271.12,464.002,267.656,464.002z M265.211,471.38
					c-1.155,0-2.095-0.94-2.095-2.095c0-1.155,0.94-2.095,2.095-2.095c1.155,0,2.095,0.94,2.095,2.095
					C267.306,470.44,266.366,471.38,265.211,471.38z M270.576,470.351c-0.849,0-1.54-0.691-1.54-1.54
					c0-0.849,0.691-1.541,1.54-1.541c0.849,0,1.541,0.691,1.541,1.541C272.116,469.66,271.425,470.351,270.576,470.351z"/>
			</g>
			<path id="XMLID_336_" style="fill:#1C1C1B;" d="M285.779,466.116c-0.334-0.131-0.912-0.35-1.565-0.269
				c-0.624,0.078-0.956,0.386-0.956,1.14v0.981h2.523v1.945h-2.523v6.177h-2.188v-6.177h-1.517v-1.945h1.517v-1.006
				c0-1.902,1.014-3.151,2.908-3.151c0.728,0,1.31,0.138,1.8,0.349L285.779,466.116z"/>
			<path id="XMLID_334_" style="fill:#1C1C1B;" d="M291.104,469.89c-0.2-0.034-0.405-0.052-0.596-0.052
				c-1.014,0-1.71,0.62-1.71,1.827v4.425h-2.188v-8.122h2.12v0.888c0.511-0.763,1.291-1.106,2.288-1.106
				c0.469,0,0.96,0.144,1.239,0.381L291.104,469.89z"/>
			<path id="XMLID_331_" style="fill:#1C1C1B;" d="M299.786,472.017c0,0.251-0.017,0.553-0.042,0.738h-5.758
				c0.235,1.173,1.056,1.685,2.087,1.685c0.704,0,1.467-0.285,2.053-0.779l1.282,1.408c-0.922,0.846-2.095,1.232-3.461,1.232
				c-2.489,0-4.216-1.693-4.216-4.249c0-2.556,1.676-4.3,4.107-4.3C298.177,467.75,299.778,469.485,299.786,472.017z
				 M293.995,471.262h3.595c-0.201-1.039-0.83-1.626-1.768-1.626C294.791,469.636,294.187,470.257,293.995,471.262z"/>
			<path id="XMLID_328_" style="fill:#1C1C1B;" d="M308.453,472.017c0,0.251-0.017,0.553-0.042,0.738h-5.758
				c0.235,1.173,1.056,1.685,2.087,1.685c0.704,0,1.467-0.285,2.053-0.779l1.282,1.408c-0.922,0.846-2.095,1.232-3.461,1.232
				c-2.489,0-4.216-1.693-4.216-4.249c0-2.556,1.676-4.3,4.107-4.3C306.843,467.75,308.444,469.485,308.453,472.017z
				 M302.661,471.262h3.596c-0.201-1.039-0.83-1.626-1.768-1.626C303.457,469.636,302.854,470.257,302.661,471.262z"/>
			<path id="XMLID_325_" style="fill:#1C1C1B;" d="M317.903,472.025c0,2.439-1.693,4.275-3.931,4.275
				c-1.09,0-1.861-0.428-2.389-1.056v4.199h-2.179v-11.474h2.137v0.897c0.528-0.662,1.307-1.115,2.422-1.115
				C316.21,467.75,317.903,469.586,317.903,472.025z M311.475,472.025c0,1.282,0.846,2.238,2.087,2.238
				c1.291,0,2.095-0.997,2.095-2.238c0-1.24-0.805-2.238-2.095-2.238C312.321,469.787,311.475,470.742,311.475,472.025z"/>
			<path id="XMLID_322_" style="fill:#1C1C1B;" d="M321.418,465.311c0,0.788-0.612,1.391-1.4,1.391
				c-0.788,0-1.391-0.603-1.391-1.391c0-0.788,0.604-1.408,1.391-1.408C320.806,463.903,321.418,464.524,321.418,465.311z
				 M321.124,476.09h-2.188v-8.122h2.188V476.09z"/>
			<path id="XMLID_320_" style="fill:#1C1C1B;" d="M324.775,470.86l3.059-2.892h2.682l-3.939,3.822l3.964,4.3h-2.69l-3.076-3.285
				v3.285h-2.188v-12.069h2.188V470.86z"/>
		</g>
		<g>
			<path style="fill:#1C1C1B;" d="M175.729,476.016v-1.194c-0.597,0.813-1.576,1.393-2.704,1.393c-2.09,0-3.566-1.592-3.566-4.196
				c0-2.555,1.46-4.213,3.566-4.213c1.078,0,2.057,0.531,2.704,1.41v-4.263h1.244v11.064H175.729z M175.729,473.843v-3.633
				c-0.448-0.697-1.41-1.294-2.405-1.294c-1.609,0-2.571,1.327-2.571,3.102c0,1.775,0.962,3.085,2.571,3.085
				C174.319,475.104,175.281,474.54,175.729,473.843z"/>
			<path style="fill:#1C1C1B;" d="M178.582,472.002c0-2.322,1.659-4.197,3.948-4.197c2.422,0,3.848,1.891,3.848,4.296v0.316h-6.486
				c0.1,1.509,1.161,2.77,2.886,2.77c0.912,0,1.841-0.365,2.471-1.012l0.597,0.813c-0.796,0.796-1.874,1.227-3.185,1.227
				C180.29,476.215,178.582,474.507,178.582,472.002z M182.513,468.834c-1.709,0-2.555,1.443-2.621,2.67h5.258
				C185.134,470.31,184.337,468.834,182.513,468.834z"/>
			<path style="fill:#1C1C1B;" d="M187.273,474.955l0.647-0.895c0.531,0.614,1.543,1.145,2.637,1.145
				c1.228,0,1.891-0.581,1.891-1.377c0-1.94-4.96-0.746-4.96-3.716c0-1.244,1.078-2.306,2.985-2.306c1.36,0,2.323,0.514,2.969,1.161
				l-0.581,0.863c-0.481-0.581-1.36-1.012-2.389-1.012c-1.095,0-1.775,0.547-1.775,1.261c0,1.758,4.96,0.597,4.96,3.716
				c0,1.344-1.078,2.422-3.151,2.422C189.197,476.215,188.086,475.817,187.273,474.955z"/>
			<path style="fill:#1C1C1B;" d="M195.053,466.031c0-0.464,0.382-0.846,0.829-0.846c0.465,0,0.846,0.381,0.846,0.846
				c0,0.465-0.381,0.829-0.846,0.829C195.434,466.86,195.053,466.495,195.053,466.031z M195.268,476.016v-8.012h1.244v8.012H195.268
				z"/>
			<path style="fill:#1C1C1B;" d="M198.569,478.073l0.63-0.929c0.663,0.796,1.46,1.095,2.604,1.095c1.327,0,2.571-0.647,2.571-2.405
				v-1.145c-0.581,0.813-1.559,1.427-2.687,1.427c-2.09,0-3.566-1.559-3.566-4.147c0-2.571,1.46-4.163,3.566-4.163
				c1.078,0,2.04,0.531,2.687,1.41v-1.211h1.244v7.78c0,2.654-1.858,3.483-3.815,3.483
				C200.443,479.267,199.514,479.002,198.569,478.073z M204.374,473.711v-3.5c-0.432-0.697-1.393-1.294-2.389-1.294
				c-1.609,0-2.571,1.277-2.571,3.052c0,1.758,0.962,3.052,2.571,3.052C202.981,475.021,203.943,474.408,204.374,473.711z"/>
			<path style="fill:#1C1C1B;" d="M213.099,476.016v-5.242c0-1.41-0.713-1.858-1.791-1.858c-0.979,0-1.908,0.597-2.372,1.244v5.855
				h-1.244v-8.012h1.244v1.161c0.564-0.663,1.658-1.36,2.853-1.36c1.675,0,2.555,0.846,2.555,2.588v5.623H213.099z"/>
			<path style="fill:#1C1C1B;" d="M215.952,472.002c0-2.322,1.659-4.197,3.948-4.197c2.422,0,3.848,1.891,3.848,4.296v0.316h-6.486
				c0.099,1.509,1.161,2.77,2.886,2.77c0.912,0,1.841-0.365,2.472-1.012l0.597,0.813c-0.796,0.796-1.874,1.227-3.185,1.227
				C217.66,476.215,215.952,474.507,215.952,472.002z M219.883,468.834c-1.708,0-2.555,1.443-2.621,2.67h5.258
				C222.503,470.31,221.707,468.834,219.883,468.834z"/>
			<path style="fill:#1C1C1B;" d="M231.146,476.016v-1.194c-0.597,0.813-1.576,1.393-2.704,1.393c-2.09,0-3.566-1.592-3.566-4.196
				c0-2.555,1.46-4.213,3.566-4.213c1.078,0,2.057,0.531,2.704,1.41v-4.263h1.244v11.064H231.146z M231.146,473.843v-3.633
				c-0.448-0.697-1.41-1.294-2.405-1.294c-1.609,0-2.571,1.327-2.571,3.102c0,1.775,0.962,3.085,2.571,3.085
				C229.736,475.104,230.697,474.54,231.146,473.843z"/>
			<path style="fill:#1C1C1B;" d="M238.327,476.016v-11.064h1.244v4.263c0.647-0.879,1.609-1.41,2.704-1.41
				c2.09,0,3.566,1.659,3.566,4.213c0,2.604-1.476,4.196-3.566,4.196c-1.128,0-2.107-0.581-2.704-1.393v1.194H238.327z
				 M241.96,475.104c1.626,0,2.588-1.31,2.588-3.085c0-1.775-0.962-3.102-2.588-3.102c-0.979,0-1.957,0.597-2.388,1.294v3.633
				C240.003,474.54,240.981,475.104,241.96,475.104z"/>
			<path style="fill:#1C1C1B;" d="M247.201,478.023c0.182,0.083,0.481,0.133,0.68,0.133c0.547,0,0.912-0.182,1.194-0.846
				l0.531-1.211l-3.351-8.095h1.344l2.671,6.569l2.654-6.569h1.36l-4.014,9.637c-0.481,1.161-1.294,1.609-2.356,1.625
				c-0.265,0-0.68-0.05-0.912-0.116L247.201,478.023z"/>
		</g>
	</g>
</g>
</svg>
